# xmcd
#
# Track frame offsets:
# 150
# 18708
# 40241
#
# Disc length: 930 seconds
#
#
# Revision: 0
# Processed by: cddbd v1.5.2PL0 Copyright (c) Steve Scherf et al.
# Submitted via: FreeRIP 2.951 
#
DISCID=1f03a003
DTITLE=Sétimo Céu - Sétimo Céu
DYEAR=1900
DGENRE=Top 40
TTITLE0=Sétimo Céu - (Versão Rádio)
TTITLE1=Sétimo Céu - (Club Remix)
TTITLE2=Sétimo Céu - (Club Remix extended)
EXTD=
EXTT0=
EXTT1=
EXTT2=
PLAYORDER=
